<?xml version="1.0" encoding="utf-8"?>
<!-- Generator: Adobe Illustrator 16.0.0, SVG Export Plug-In . SVG Version: 6.00 Build 0)  -->
<!DOCTYPE svg PUBLIC "-//W3C//DTD SVG 1.1//EN" "http://www.w3.org/Graphics/SVG/1.1/DTD/svg11.dtd">
<svg version="1.1" id="Layer_1" xmlns="http://www.w3.org/2000/svg" xmlns:xlink="http://www.w3.org/1999/xlink" x="0px" y="0px"
	 width="512px" height="512px" viewBox="0 0 512 512" enable-background="new 0 0 512 512" xml:space="preserve">
<text transform="matrix(1 0 0 1 168.7825 543.8093)" fill="#FFFF00" font-family="'Verdana-Bold'" font-size="20">simpleicon.com</text>
<text transform="matrix(1 0 0 1 9.1926 567.8093)" fill="#FFFF00" font-family="'Verdana'" font-size="20">Collection Of Flat Icon, Symbols And Glyph Icons</text>
<g>
	<path d="M410.269,236.903c-2.213-8.054-22.782-8.748-31.056-5.989c-30.096,10.006-60.19,20.019-90.291,30.024l-104.469-41.715
		l-11.024,11.761l44.71,53.683c-28.823,9.963-81.603,28.36-91.181,31.539c-8.243,2.746,53.295,11.477,67.402,9.133
		c0,0,108.407-35.355,156.335-51.304c12.313-4.099,24.629-8.192,36.961-12.297C395.901,258.992,412.662,245.635,410.269,236.903z"/>
	<polygon points="109.877,278.018 101.5,285.748 123.707,311.659 155.892,300.323 	"/>
</g>
<path d="M437.281,74.719H74.719C61.07,74.719,50,85.791,50,99.44v313.122c0,13.645,11.069,24.719,24.719,24.719h362.563
	c13.654,0,24.719-11.074,24.719-24.719V99.44C462,85.786,450.936,74.719,437.281,74.719z M375.482,91.2
	c9.082,0,16.48,7.391,16.48,16.48c0,9.088-7.398,16.479-16.48,16.479c-9.089,0-16.481-7.391-16.481-16.479
	C359,98.591,366.393,91.2,375.482,91.2z M330.162,91.2c9.083,0,16.476,7.391,16.476,16.48c0,9.088-7.393,16.479-16.476,16.479
	c-9.088,0-16.481-7.391-16.481-16.479C313.681,98.591,321.074,91.2,330.162,91.2z M437.281,412.562H74.719V140.64h362.563V412.562z
	 M420.8,124.159c-9.083,0-16.48-7.391-16.48-16.479c0-9.09,7.397-16.48,16.48-16.48s16.481,7.391,16.481,16.48
	C437.281,116.768,429.883,124.159,420.8,124.159z"/>
</svg>
